<svg width="12" height="13" viewBox="0 0 12 13" fill="none" xmlns="http://www.w3.org/2000/svg">
<path d="M3.33333 2.66667C3.33333 2.84348 3.2631 3.01305 3.13807 3.13807C3.01305 3.2631 2.84348 3.33333 2.66667 3.33333C2.48986 3.33333 2.32029 3.2631 2.19526 3.13807C2.07024 3.01305 2 2.84348 2 2.66667C2 2.48986 2.07024 2.32029 2.19526 2.19526C2.32029 2.07024 2.48986 2 2.66667 2C2.84348 2 3.01305 2.07024 3.13807 2.19526C3.2631 2.32029 3.33333 2.48986 3.33333 2.66667ZM2.66667 5.33333C2.84348 5.33333 3.01305 5.2631 3.13807 5.13807C3.2631 5.01305 3.33333 4.84348 3.33333 4.66667C3.33333 4.48986 3.2631 4.32029 3.13807 4.19526C3.01305 4.07024 2.84348 4 2.66667 4C2.48986 4 2.32029 4.07024 2.19526 4.19526C2.07024 4.32029 2 4.48986 2 4.66667C2 4.84348 2.07024 5.01305 2.19526 5.13807C2.32029 5.2631 2.48986 5.33333 2.66667 5.33333ZM3.33333 6.66667C3.33333 6.84348 3.2631 7.01305 3.13807 7.13807C3.01305 7.2631 2.84348 7.33333 2.66667 7.33333C2.48986 7.33333 2.32029 7.2631 2.19526 7.13807C2.07024 7.01305 2 6.84348 2 6.66667C2 6.48986 2.07024 6.32029 2.19526 6.19526C2.32029 6.07024 2.48986 6 2.66667 6C2.84348 6 3.01305 6.07024 3.13807 6.19526C3.2631 6.32029 3.33333 6.48986 3.33333 6.66667ZM3.33333 8.66667C3.33333 8.84348 3.2631 9.01305 3.13807 9.13807C3.01305 9.2631 2.84348 9.33333 2.66667 9.33333C2.48986 9.33333 2.32029 9.2631 2.19526 9.13807C2.07024 9.01305 2 8.84348 2 8.66667C2 8.48986 2.07024 8.32029 2.19526 8.19526C2.32029 8.07024 2.48986 8 2.66667 8C2.84348 8 3.01305 8.07024 3.13807 8.19526C3.2631 8.32029 3.33333 8.48986 3.33333 8.66667ZM2.66667 11.3333C2.84348 11.3333 3.01305 11.2631 3.13807 11.1381C3.2631 11.013 3.33333 10.8435 3.33333 10.6667C3.33333 10.4899 3.2631 10.3203 3.13807 10.1953C3.01305 10.0702 2.84348 10 2.66667 10C2.48986 10 2.32029 10.0702 2.19526 10.1953C2.07024 10.3203 2 10.4899 2 10.6667C2 10.8435 2.07024 11.013 2.19526 11.1381C2.32029 11.2631 2.48986 11.3333 2.66667 11.3333ZM7.33333 9.33333C7.51014 9.33333 7.67971 9.2631 7.80474 9.13807C7.92976 9.01305 8 8.84348 8 8.66667C8 8.48986 7.92976 8.32029 7.80474 8.19526C7.67971 8.07024 7.51014 8 7.33333 8C7.15652 8 6.98695 8.07024 6.86193 8.19526C6.73691 8.32029 6.66667 8.48986 6.66667 8.66667C6.66667 8.84348 6.73691 9.01305 6.86193 9.13807C6.98695 9.2631 7.15652 9.33333 7.33333 9.33333ZM9.33333 9.33333C9.51014 9.33333 9.67971 9.2631 9.80474 9.13807C9.92976 9.01305 10 8.84348 10 8.66667C10 8.48986 9.92976 8.32029 9.80474 8.19526C9.67971 8.07024 9.51014 8 9.33333 8C9.15652 8 8.98695 8.07024 8.86193 8.19526C8.7369 8.32029 8.66667 8.48986 8.66667 8.66667C8.66667 8.84348 8.7369 9.01305 8.86193 9.13807C8.98695 9.2631 9.15652 9.33333 9.33333 9.33333ZM9.33333 7.33333C9.51014 7.33333 9.67971 7.2631 9.80474 7.13807C9.92976 7.01305 10 6.84348 10 6.66667C10 6.48986 9.92976 6.32029 9.80474 6.19526C9.67971 6.07024 9.51014 6 9.33333 6C9.15652 6 8.98695 6.07024 8.86193 6.19526C8.7369 6.32029 8.66667 6.48986 8.66667 6.66667C8.66667 6.84348 8.7369 7.01305 8.86193 7.13807C8.98695 7.2631 9.15652 7.33333 9.33333 7.33333ZM8 6.66667C8 6.84348 7.92976 7.01305 7.80474 7.13807C7.67971 7.2631 7.51014 7.33333 7.33333 7.33333C7.15652 7.33333 6.98695 7.2631 6.86193 7.13807C6.73691 7.01305 6.66667 6.84348 6.66667 6.66667C6.66667 6.48986 6.73691 6.32029 6.86193 6.19526C6.98695 6.07024 7.15652 6 7.33333 6C7.51014 6 7.67971 6.07024 7.80474 6.19526C7.92976 6.32029 8 6.48986 8 6.66667ZM9.33333 5.33333C9.51014 5.33333 9.67971 5.2631 9.80474 5.13807C9.92976 5.01305 10 4.84348 10 4.66667C10 4.48986 9.92976 4.32029 9.80474 4.19526C9.67971 4.07024 9.51014 4 9.33333 4C9.15652 4 8.98695 4.07024 8.86193 4.19526C8.7369 4.32029 8.66667 4.48986 8.66667 4.66667C8.66667 4.84348 8.7369 5.01305 8.86193 5.13807C8.98695 5.2631 9.15652 5.33333 9.33333 5.33333ZM8 4.66667C8 4.84348 7.92976 5.01305 7.80474 5.13807C7.67971 5.2631 7.51014 5.33333 7.33333 5.33333C7.15652 5.33333 6.98695 5.2631 6.86193 5.13807C6.73691 5.01305 6.66667 4.84348 6.66667 4.66667C6.66667 4.48986 6.73691 4.32029 6.86193 4.19526C6.98695 4.07024 7.15652 4 7.33333 4C7.51014 4 7.67971 4.07024 7.80474 4.19526C7.92976 4.32029 8 4.48986 8 4.66667ZM7.33333 2V1.5C7.33333 1.10218 7.1753 0.720644 6.89399 0.43934C6.61269 0.158035 6.23116 0 5.83333 0H1.5C1.10218 0 0.720644 0.158035 0.43934 0.43934C0.158035 0.720644 0 1.10218 0 1.5V12.5C0 12.776 0.224 13 0.5 13H11.5C11.6326 13 11.7598 12.9473 11.8536 12.8536C11.9473 12.7598 12 12.6326 12 12.5V3.5C12 3.10218 11.842 2.72064 11.5607 2.43934C11.2794 2.15804 10.8978 2 10.5 2H7.33333ZM1 1.5C1 1.36739 1.05268 1.24021 1.14645 1.14645C1.24021 1.05268 1.36739 1 1.5 1H5.83333C5.96594 1 6.09312 1.05268 6.18689 1.14645C6.28065 1.24021 6.33333 1.36739 6.33333 1.5V2H6.16667C5.76884 2 5.38731 2.15804 5.10601 2.43934C4.8247 2.72064 4.66667 3.10218 4.66667 3.5V12H1V1.5ZM7.66667 12V11H9V12H7.66667ZM10 10.5C10 10.3674 9.94732 10.2402 9.85355 10.1464C9.75979 10.0527 9.63261 10 9.5 10H7.16667C7.03406 10 6.90688 10.0527 6.81311 10.1464C6.71935 10.2402 6.66667 10.3674 6.66667 10.5V12H5.66667V3.5C5.66667 3.36739 5.71935 3.24021 5.81311 3.14645C5.90688 3.05268 6.03406 3 6.16667 3H10.5C10.6326 3 10.7598 3.05268 10.8536 3.14645C10.9473 3.24021 11 3.36739 11 3.5V12H10V10.5Z" fill="black"/>
</svg>
