<svg width="22" height="24" viewBox="0 0 22 24" fill="none" xmlns="http://www.w3.org/2000/svg">
<path d="M3.66625 23.5003C2.19375 23.5003 1 22.2753 1 20.7628V9.76035C1 8.9291 1.36875 8.1416 2 7.62285L9.33375 1.60035C9.80232 1.21232 10.3916 1 11 1C11.6084 1 12.1977 1.21232 12.6663 1.60035L19.9987 7.62285C20.6312 8.1416 21 8.9291 21 9.76035V20.7628C21 22.2753 19.8063 23.5003 18.3338 23.5003H3.66625Z" stroke="#B5B5B5" stroke-linecap="round" stroke-linejoin="round"/>
<path d="M7.875 23.5005V16.6255C7.875 15.9624 8.13839 15.3266 8.60723 14.8577C9.07607 14.3889 9.71196 14.1255 10.375 14.1255H11.625C12.288 14.1255 12.9239 14.3889 13.3928 14.8577C13.8616 15.3266 14.125 15.9624 14.125 16.6255V23.5005" stroke="#B5B5B5" stroke-linecap="round" stroke-linejoin="round"/>
</svg>
