<svg width="22" height="22" viewBox="0 0 22 22" fill="none" xmlns="http://www.w3.org/2000/svg">
<path d="M11 21C12.9778 21 14.9112 20.4135 16.5557 19.3147C18.2002 18.2159 19.4819 16.6541 20.2388 14.8268C20.9957 12.9996 21.1937 10.9889 20.8078 9.0491C20.422 7.10929 19.4696 5.32746 18.0711 3.92894C16.6725 2.53041 14.8907 1.578 12.9509 1.19215C11.0111 0.8063 9.00042 1.00433 7.17316 1.76121C5.3459 2.51809 3.78412 3.79981 2.6853 5.4443C1.58649 7.08879 1 9.02219 1 11C1 12.6 1.37556 14.1111 2.04444 15.4522C2.54778 16.4644 1.84778 17.83 1.58111 18.8267C1.52203 19.0471 1.52202 19.2792 1.58108 19.4996C1.64014 19.7201 1.75619 19.9211 1.91756 20.0824C2.07892 20.2438 2.27993 20.3599 2.50037 20.4189C2.7208 20.478 2.9529 20.478 3.17333 20.4189C4.17 20.1522 5.53555 19.4522 6.54778 19.9567C7.93135 20.6437 9.45526 21.0008 11 21Z" stroke="#B5B5B5" stroke-width="1.5" stroke-linecap="round" stroke-linejoin="round"/>
</svg>
