<svg width="20" height="22" viewBox="0 0 20 22" fill="none" xmlns="http://www.w3.org/2000/svg">
<circle cx="10" cy="5" r="4.5" stroke="#B5B5B5"/>
<mask id="path-2-inside-1_3026_2750" fill="white">
<path d="M0 19C0 14.5817 3.58172 11 8 11H12C16.4183 11 20 14.5817 20 19V22H0V19Z"/>
</mask>
<path d="M-1 19C-1 14.0294 3.02944 10 8 10H12C16.9706 10 21 14.0294 21 19H19C19 15.134 15.866 12 12 12H8C4.13401 12 1 15.134 1 19H-1ZM20 22H0H20ZM-1 22V19C-1 14.0294 3.02944 10 8 10V12C4.13401 12 1 15.134 1 19V22H-1ZM12 10C16.9706 10 21 14.0294 21 19V22H19V19C19 15.134 15.866 12 12 12V10Z" fill="#B5B5B5" mask="url(#path-2-inside-1_3026_2750)"/>
</svg>
