<svg width="22" height="26" viewBox="0 0 22 26" fill="none" xmlns="http://www.w3.org/2000/svg">
<path d="M7.36364 12.9998H11.9091M7.36364 16.6362H11.9091M7.36364 20.2725H11.9091M15.5455 21.1816H18.2727C18.996 21.1816 19.6897 20.8943 20.2012 20.3828C20.7127 19.8714 21 19.1777 21 18.4544V5.858C21 4.48225 19.9758 3.31497 18.6048 3.20103C18.1515 3.16344 17.6977 3.13111 17.2436 3.10406M17.2436 3.10406C17.3241 3.36477 17.3637 3.63608 17.3636 3.90891C17.3636 4.15002 17.2679 4.38125 17.0974 4.55174C16.9269 4.72223 16.6957 4.818 16.4545 4.818H11C10.4982 4.818 10.0909 4.41073 10.0909 3.90891C10.0909 3.62891 10.1333 3.35861 10.2121 3.10406M17.2436 3.10406C17.0716 2.54723 16.7246 2.06014 16.2556 1.71418C15.7866 1.36822 15.2191 1.18159 14.6364 1.18164H12.8182C12.2354 1.18178 11.6681 1.36848 11.1991 1.71442C10.7302 2.06035 10.3843 2.54734 10.2121 3.10406M10.2121 3.10406C9.75636 3.13194 9.30303 3.16467 8.8497 3.20103C7.47879 3.31497 6.45455 4.48225 6.45455 5.858V8.45437M6.45455 8.45437H2.36364C1.61091 8.45437 1 9.06528 1 9.818V23.4544C1 24.2071 1.61091 24.818 2.36364 24.818H14.1818C14.9345 24.818 15.5455 24.2071 15.5455 23.4544V9.818C15.5455 9.06528 14.9345 8.45437 14.1818 8.45437H6.45455ZM4.63636 12.9998H4.64606V13.0095H4.63636V12.9998ZM4.63636 16.6362H4.64606V16.6459H4.63636V16.6362ZM4.63636 20.2725H4.64606V20.2822H4.63636V20.2725Z" stroke="#B5B5B5" stroke-linecap="round" stroke-linejoin="round"/>
</svg>
