<svg width="15" height="20" viewBox="0 0 15 20" fill="white" xmlns="http://www.w3.org/2000/svg">
<path d="M7.5 0.888672C9.48912 0.888672 11.3968 1.67885 12.8033 3.08537C14.2098 4.49189 15 6.39955 15 8.38867C15 11.5579 12.7731 15.0117 8.37692 18.7871C8.13248 18.9971 7.82082 19.1125 7.49856 19.1122C7.17631 19.1119 6.86485 18.996 6.62077 18.7856L6.33 18.5333C2.12846 14.8564 0 11.4871 0 8.38867C0 6.39955 0.790177 4.49189 2.1967 3.08537C3.60322 1.67885 5.51088 0.888672 7.5 0.888672ZM7.5 2.04252C5.8169 2.04252 4.20273 2.71113 3.01259 3.90126C1.82246 5.0914 1.15385 6.70557 1.15385 8.38867C1.15385 11.0825 3.11385 14.1864 7.08769 17.6633L7.37462 17.9117C7.4095 17.9417 7.45399 17.9582 7.5 17.9582C7.54601 17.9582 7.5905 17.9417 7.62538 17.9117C11.7915 14.3333 13.8462 11.1464 13.8462 8.38867C13.8462 7.55528 13.682 6.73006 13.3631 5.9601C13.0442 5.19015 12.5767 4.49056 11.9874 3.90126C11.3981 3.31197 10.6985 2.84451 9.92857 2.52559C9.15862 2.20667 8.33339 2.04252 7.5 2.04252ZM7.5 5.50406C8.26505 5.50406 8.99876 5.80797 9.53973 6.34894C10.0807 6.88991 10.3846 7.62362 10.3846 8.38867C10.3846 9.15372 10.0807 9.88743 9.53973 10.4284C8.99876 10.9694 8.26505 11.2733 7.5 11.2733C6.73495 11.2733 6.00124 10.9694 5.46027 10.4284C4.9193 9.88743 4.61538 9.15372 4.61538 8.38867C4.61538 7.62362 4.9193 6.88991 5.46027 6.34894C6.00124 5.80797 6.73495 5.50406 7.5 5.50406ZM7.5 6.6579C7.04097 6.6579 6.60074 6.84025 6.27616 7.16483C5.95158 7.48942 5.76923 7.92964 5.76923 8.38867C5.76923 8.8477 5.95158 9.28793 6.27616 9.61251C6.60074 9.93709 7.04097 10.1194 7.5 10.1194C7.95903 10.1194 8.39926 9.93709 8.72384 9.61251C9.04842 9.28793 9.23077 8.8477 9.23077 8.38867C9.23077 7.92964 9.04842 7.48942 8.72384 7.16483C8.39926 6.84025 7.95903 6.6579 7.5 6.6579Z" fill="black"/>
</svg>
