<svg width="13" height="13" viewBox="0 0 13 13" fill="none" xmlns="http://www.w3.org/2000/svg">
<path d="M6.5 0.75C6.68031 0.75 6.85575 0.808482 7 0.916667L11.6667 4.41667C11.7702 4.49429 11.8542 4.59494 11.912 4.71066C11.9699 4.82637 12 4.95396 12 5.08333V11.4167C12 11.6377 11.9122 11.8496 11.7559 12.0059C11.5996 12.1622 11.3877 12.25 11.1667 12.25H8.56667C8.50478 12.25 8.44543 12.2254 8.40168 12.1817C8.35792 12.1379 8.33333 12.0786 8.33333 12.0167V8.75C8.33333 8.26377 8.14018 7.79745 7.79636 7.45364C7.45255 7.10982 6.98623 6.91667 6.5 6.91667C6.01377 6.91667 5.54745 7.10982 5.20364 7.45364C4.85982 7.79745 4.66667 8.26377 4.66667 8.75V12.0167C4.66667 12.0786 4.64208 12.1379 4.59833 12.1817C4.55457 12.2254 4.49522 12.25 4.43333 12.25H1.83333C1.61232 12.25 1.40036 12.1622 1.24408 12.0059C1.0878 11.8496 1 11.6377 1 11.4167V5.08333C1 4.95396 1.03012 4.82637 1.08798 4.71066C1.14583 4.59494 1.22984 4.49429 1.33333 4.41667L6 0.916667C6.14425 0.808482 6.31969 0.75 6.5 0.75Z" fill="none" stroke="black"/>
</svg>
