<svg width="14" height="14" viewBox="0 0 14 14" fill="none" xmlns="http://www.w3.org/2000/svg">
<path d="M13 13L10.1047 10.1047M10.1047 10.1047C10.6 9.60945 10.9928 9.0215 11.2608 8.37442C11.5289 7.72734 11.6668 7.0338 11.6668 6.33341C11.6668 5.63302 11.5289 4.93948 11.2608 4.2924C10.9928 3.64532 10.6 3.05737 10.1047 2.56212C9.60945 2.06687 9.0215 1.67401 8.37442 1.40598C7.72734 1.13795 7.0338 1 6.33341 1C5.63302 1 4.93948 1.13795 4.2924 1.40598C3.64532 1.67401 3.05737 2.06687 2.56212 2.56212C1.56191 3.56233 1 4.9189 1 6.33341C1 7.74792 1.56191 9.10449 2.56212 10.1047C3.56233 11.1049 4.9189 11.6668 6.33341 11.6668C7.74792 11.6668 9.10449 11.1049 10.1047 10.1047Z" stroke="#8E8E8E" stroke-linecap="round" stroke-linejoin="round"/>
</svg>
