<svg width="16" height="16" viewBox="0 0 16 16" fill="none" xmlns="http://www.w3.org/2000/svg">
<path d="M8 7.78571C7.5264 7.78571 7.0722 7.59758 6.73731 7.26269C6.40242 6.9278 6.21429 6.4736 6.21429 6C6.21429 5.5264 6.40242 5.0722 6.73731 4.73731C7.0722 4.40242 7.5264 4.21429 8 4.21429C8.4736 4.21429 8.9278 4.40242 9.26269 4.73731C9.59758 5.0722 9.78571 5.5264 9.78571 6C9.78571 6.2345 9.73953 6.46671 9.64979 6.68336C9.56004 6.90002 9.42851 7.09687 9.26269 7.26269C9.09687 7.42851 8.90002 7.56004 8.68336 7.64979C8.46671 7.73953 8.2345 7.78571 8 7.78571ZM8 1C6.67392 1 5.40215 1.52678 4.46447 2.46447C3.52678 3.40215 3 4.67392 3 6C3 9.75 8 15.2857 8 15.2857C8 15.2857 13 9.75 13 6C13 4.67392 12.4732 3.40215 11.5355 2.46447C10.5979 1.52678 9.32608 1 8 1Z" fill="black"/>
</svg>
