<svg width="35" height="34" viewBox="0 0 35 34" fill="none" xmlns="http://www.w3.org/2000/svg">
<path d="M2.83333 24.8333V2.83333M7.41667 20.25H20.25V18.4167H7.41667V20.25ZM7.41667 14.75H27.5833V12.9167H7.41667V14.75ZM7.41667 9.25H27.5833V7.41667H7.41667V9.25ZM1 32.3078V3.96267C1 3.11811 1.28294 2.4135 1.84883 1.84883C2.41472 1.28417 3.11872 1.00122 3.96083 1H31.0392C31.8825 1 32.5865 1.28294 33.1512 1.84883C33.7158 2.41472 33.9988 3.11933 34 3.96267V23.7058C34 24.5492 33.7171 25.2538 33.1512 25.8197C32.5853 26.3856 31.8813 26.6679 31.0392 26.6667H6.64117L1 32.3078ZM5.85833 24.8333H31.0392C31.3203 24.8333 31.5788 24.716 31.8147 24.4813C32.0506 24.2467 32.1679 23.9882 32.1667 23.7058V3.96083C32.1667 3.67972 32.0493 3.42122 31.8147 3.18533C31.58 2.94944 31.3215 2.83211 31.0392 2.83333H3.96083C3.67972 2.83333 3.42122 2.95067 3.18533 3.18533C2.94944 3.42 2.83211 3.6785 2.83333 3.96083V27.8492L5.85833 24.8333Z" stroke="#144B44"/>
</svg>
