<svg width="35" height="41" viewBox="0 0 35 41" fill="none" xmlns="http://www.w3.org/2000/svg">
<path d="M11.5 20.5H19M11.5 26.5H19M11.5 32.5H19M25 34H29.5C30.6935 34 31.8381 33.5259 32.682 32.682C33.5259 31.8381 34 30.6935 34 29.5V8.716C34 6.446 32.31 4.52 30.048 4.332C29.3 4.26996 28.5513 4.21663 27.802 4.172M27.802 4.172C27.9347 4.60217 28.0001 5.04982 28 5.5C28 5.89782 27.842 6.27936 27.5607 6.56066C27.2794 6.84196 26.8978 7 26.5 7H17.5C16.672 7 16 6.328 16 5.5C16 5.038 16.07 4.592 16.2 4.172M27.802 4.172C27.5182 3.25323 26.9456 2.44952 26.1718 1.87869C25.3979 1.30785 24.4616 0.999911 23.5 1H20.5C19.5385 1.00023 18.6023 1.30829 17.8285 1.87908C17.0548 2.44987 16.4841 3.2534 16.2 4.172M16.2 4.172C15.448 4.218 14.7 4.272 13.952 4.332C11.69 4.52 10 6.446 10 8.716V13M10 13H3.25C2.008 13 1 14.008 1 15.25V37.75C1 38.992 2.008 40 3.25 40H22.75C23.992 40 25 38.992 25 37.75V15.25C25 14.008 23.992 13 22.75 13H10ZM7 20.5H7.016V20.516H7V20.5ZM7 26.5H7.016V26.516H7V26.5ZM7 32.5H7.016V32.516H7V32.5Z" stroke="#144B44" stroke-linecap="round" stroke-linejoin="round"/>
</svg>
