<svg width="15" height="20" viewBox="0 0 15 20" fill="none" xmlns="http://www.w3.org/2000/svg">
<path d="M7.5 0.888672C9.48912 0.888672 11.3968 1.67885 12.8033 3.08537C14.2098 4.49189 15 6.39955 15 8.38867C15 11.5579 12.7731 15.0117 8.37692 18.7871C8.13248 18.9971 7.82082 19.1125 7.49856 19.1122C7.17631 19.1119 6.86485 18.996 6.62077 18.7856L6.33 18.5333C2.12846 14.8564 0 11.4871 0 8.38867C0 6.39955 0.790177 4.49189 2.1967 3.08537C3.60322 1.67885 5.51088 0.888672 7.5 0.888672ZM7.5 5.50406C6.73495 5.50406 6.00124 5.80797 5.46027 6.34894C4.9193 6.88991 4.61538 7.62362 4.61538 8.38867C4.61538 9.15372 4.9193 9.88743 5.46027 10.4284C6.00124 10.9694 6.73495 11.2733 7.5 11.2733C8.26505 11.2733 8.99876 10.9694 9.53973 10.4284C10.0807 9.88743 10.3846 9.15372 10.3846 8.38867C10.3846 7.62362 10.0807 6.88991 9.53973 6.34894C8.99876 5.80797 8.26505 5.50406 7.5 5.50406Z" fill="black"/>
</svg>
